<svg xmlns="http://www.w3.org/2000/svg" width="300" height="200" viewBox="0 0 300 200">
  <!-- 背景圆 -->
  <circle cx="150" cy="100" r="80" fill="#008751"/>
  
  <!-- 皇冠图形 - 象征胜利 -->
  <g transform="translate(150, 85)">
    <path d="M0,0 L-30,-50 L-10,-50 L-10,-70 L10,-70 L10,-50 L30,-50 Z" fill="#FFE600"/>
    <circle cx="-20" cy="-20" r="5" fill="#FFFFFF"/>
    <circle cx="0" cy="-15" r="5" fill="#FFFFFF"/>
    <circle cx="20" cy="-20" r="5" fill="#FFFFFF"/>
  </g>
  
  <!-- 品牌名称 - 两行 -->
  <text x="150" y="145" font-family="Arial, sans-serif" font-size="36" font-weight="bold" text-anchor="middle" fill="#FFFFFF">WinWise</text>
  <text x="150" y="175" font-family="Arial, sans-serif" font-size="16" text-anchor="middle" fill="#FFFFFF">NIGERIA</text>
  
  <!-- 装饰元素 -->
  <circle cx="80" cy="60" r="10" fill="#FFE600" opacity="0.7"/>
  <circle cx="220" cy="60" r="10" fill="#FFE600" opacity="0.7"/>
  
  <circle cx="70" cy="130" r="7" fill="#FFFFFF" opacity="0.5"/>
  <circle cx="230" cy="130" r="7" fill="#FFFFFF" opacity="0.5"/>
  
  <!-- 星星装饰 -->
  <path d="M95,90 L100,80 L105,90 L95,95 L105,95 Z" fill="#FFE600"/>
  <path d="M205,90 L210,80 L215,90 L205,95 L215,95 Z" fill="#FFE600"/>
</svg>